# xmcd
#
# Track frame offsets: 
#        150
#        12588
#        27368
#        39278
#        54337
#        67327
#        77601
#        88469
#        103502
#        114051
#        129329
#        143987
#        155311
#        167538
#        180136
#        195920
#        206051
#        217427
#        231195
#        243207
#
# Disc length: 3406 seconds
#
# Revision: 2
# Processed by: cddbd v1.4PL0 Copyright (c) Steve Scherf et al.
# Submitted via: ExactAudioCopy v0.90b3
#
DISCID=0a0d4c14
DTITLE=George Jones - The Battle and Memories Of Us
DYEAR=1999
DGENRE=Country
TTITLE0=The Battle
TTITLE1=I Can't Get Over What Lovin You Has Done
TTITLE2=Baby, There Nothing Like You
TTITLE3=You Always Look Your Best
TTITLE4=The Nightime (And My Baby)
TTITLE5=I'll Come Back
TTITLE6=Wean Me
TTITLE7=Love Coming Down
TTITLE8=Billy Ray Wrote A Song
TTITLE9=I Still Sing The Old Songs
TTITLE10=Memories
TTITLE11=Touch Of Wilderness
TTITLE12=A Goodbye Joke
TTITLE13=What I Do Best
TTITLE14=She Should Belong To Me
TTITLE15=Have You Seen My Chicken
TTITLE16=She Once Made A Romeo Cry
TTITLE17=Bring On The Clown
TTITLE18=Hit And Run
TTITLE19=I Just Don't Give A Damn
EXTD=2 LPs On One CD
EXTT0=
EXTT1=
EXTT2=
EXTT3=
EXTT4=
EXTT5=
EXTT6=
EXTT7=
EXTT8=
EXTT9=
EXTT10=
EXTT11=
EXTT12=
EXTT13=
EXTT14=
EXTT15=
EXTT16=
EXTT17=
EXTT18=
EXTT19=
PLAYORDER=
